<diagram name="Page-1" id="eNq1lV1rwjAUhu9hJRYNk6MnEUMgAW2VQCGfQPQUKvoU9sT9m9O7J_t_E8ObDEr-X_qANlJrDYQuCz-bvKzC7wLMhiVxgT6pINqgXpqEHHf7P_f1bBQDYwVsK0CtQLysIUhPStApdVF6OpE5URMWyVFZ6LZ3oWjlJTcvK_7e7G9FKm02B5Vk5w7FEa7Tbu8cEzJYy8yFSOv7yOXd08t4rLX7iZ3H2el3FgthM1hrHvNxN8VrBC6oYsILoFejrUE7-CCYi0s0DjN4NV4jQdM1BSPO3JvWwv08bJGCroBoYHWeqB0DWeNYgWhGTZ5GLIg9IhkMeHM1zL1wXPUYpPOGDFWqMFHp2MrnUbYv_wXuZcSPiJwPYTrJm8lFtbaf05bcGuO82ERuU7teKwqxrYhB4AjG-xWdLq8w2sQWmkYfH39jOGexa7k-WJne2n6RmtJ0uGbxV6zDBB0E-mYFuR6wjFZ2XkClt7QW1ffTixlvt5axiXOtvoUugbB7lUpvl89SHf7-hA0fcjQk7Rus59i2aFxSxCQ_GgIzxY0X0EL_YgnRBYaI1ARMS-y67WU1szHmsRzTLMHX2-N8hF_wY3raDuHu7xDdQLDmt21fcnpRMs1o5PTgDk6sztQAb4WlVitn4bh7TQJv0fA2OfeTzoB__2mNnm">
  <mxGraphModel dx="864" dy="467" grid="1" gridSize="10" guides="1" tooltips="1" connect="1" arrows="1" fold="1" page="1" pageScale="1" pageWidth="827" pageHeight="1169" math="0" shadow="0">
    <root>
      <mxCell id="0"/>
      <mxCell id="1" parent="0"/>
      <mxCell id="2" value="" style="rounded=0;whiteSpace=wrap;html=1;" vertex="1" parent="1">
        <mxGeometry x="170" y="90" width="80" height="40" as="geometry"/>
      </mxCell>
      <mxCell id="3" value="" style="rounded=0;whiteSpace=wrap;html=1;" vertex="1" parent="1">
        <mxGeometry x="170" y="190" width="80" height="40" as="geometry"/>
      </mxCell>
      <mxCell id="4" value="" style="rounded=0;whiteSpace=wrap;html=1;" vertex="1" parent="1">
        <mxGeometry x="170" y="290" width="80" height="40" as="geometry"/>
      </mxCell>
      <mxCell id="5" value="" style="rounded=0;whiteSpace=wrap;html=1;" vertex="1" parent="1">
        <mxGeometry x="170" y="390" width="80" height="40" as="geometry"/>
      </mxCell>
      <mxCell id="6" value="" style="rounded=0;whiteSpace=wrap;html=1;" vertex="1" parent="1">
        <mxGeometry x="170" y="490" width="80" height="40" as="geometry"/>
      </mxCell>
      <mxCell id="7" value="" style="rounded=0;whiteSpace=wrap;html=1;" vertex="1" parent="1">
        <mxGeometry x="170" y="590" width="80" height="40" as="geometry"/>
      </mxCell>
      <mxCell id="8" value="" style="rounded=0;whiteSpace=wrap;html=1;" vertex="1" parent="1">
        <mxGeometry x="170" y="690" width="80" height="40" as="geometry"/>
      </mxCell>
      <mxCell id="9" value="" style="rounded=0;whiteSpace=wrap;html=1;" vertex="1" parent="1">
        <mxGeometry x="170" y="790" width="80" height="40" as="geometry"/>
      </mxCell>
      <mxCell id="10" value="" style="rounded=0;whiteSpace=wrap;html=1;" vertex="1" parent="1">
        <mxGeometry x="170" y="890" width="80" height="40" as="geometry"/>
      </mxCell>
      <mxCell id="11" value="" style="rounded=0;whiteSpace=wrap;html=1;" vertex="1" parent="1">
        <mxGeometry x="470" y="190" width="80" height="40" as="geometry"/>
      </mxCell>
      <mxCell id="12" value="" style="rounded=0;whiteSpace=wrap;html=1;" vertex="1" parent="1">
        <mxGeometry x="470" y="290" width="80" height="40" as="geometry"/>
      </mxCell>
      <mxCell id="13" value="" style="rounded=0;whiteSpace=wrap;html=1;" vertex="1" parent="1">
        <mxGeometry x="470" y="390" width="80" height="40" as="geometry"/>
      </mxCell>
      <mxCell id="14" value="" style="rounded=0;whiteSpace=wrap;html=1;" vertex="1" parent="1">
        <mxGeometry x="470" y="490" width="80" height="40" as="geometry"/>
      </mxCell>
      <mxCell id="15" value="" style="rounded=0;whiteSpace=wrap;html=1;" vertex="1" parent="1">
        <mxGeometry x="470" y="590" width="80" height="40" as="geometry"/>
      </mxCell>
      <mxCell id="16" value="" style="rounded=0;whiteSpace=wrap;html=1;" vertex="1" parent="1
